<svg width="21" height="27" viewBox="0 0 21 27" fill="none" xmlns="http://www.w3.org/2000/svg">
<path d="M9.66423 20.9878V22.0455C9.66423 22.3261 9.57838 22.5951 9.42557 22.7935C9.27276 22.9919 9.06551 23.1033 8.8494 23.1033H7.21976V24.1611C7.21976 24.7221 7.04806 25.2602 6.74244 25.6569C6.43683 26.0537 6.02232 26.2766 5.59011 26.2766H2.33082C1.89861 26.2766 1.4841 26.0537 1.17848 25.6569C0.872866 25.2602 0.701172 24.7221 0.701172 24.1611V21.4257C0.701264 20.8647 0.873019 20.3267 1.17866 19.93L7.48539 11.743C7.09868 10.0384 7.13517 8.21899 7.58967 6.54281C8.04417 4.86664 8.89362 3.41873 10.0176 2.40441C11.1415 1.39008 12.4829 0.860815 13.8516 0.891656C15.2202 0.922497 16.5467 1.51188 17.6429 2.57623C18.739 3.64058 19.5492 5.12588 19.9586 6.82153C20.3681 8.51717 20.3559 10.3371 19.9238 12.0233C19.4918 13.7094 18.6618 15.1762 17.5516 16.2157C16.4413 17.2552 15.1072 17.8145 13.7383 17.8145H12.1071V19.93C12.1071 20.2106 12.0212 20.4796 11.8684 20.678C11.7156 20.8763 11.5083 20.9878 11.2922 20.9878H9.6626H9.66423ZM15.368 9.35244C15.8002 9.35244 16.2147 9.12956 16.5203 8.73282C16.8259 8.33609 16.9976 7.798 16.9976 7.23693C16.9976 6.67586 16.8259 6.13777 16.5203 5.74103C16.2147 5.3443 15.8002 5.12141 15.368 5.12141C14.9358 5.12141 14.5213 5.3443 14.2157 5.74103C13.91 6.13777 13.7383 6.67586 13.7383 7.23693C13.7383 7.798 13.91 8.33609 14.2157 8.73282C14.5213 9.12956 14.9358 9.35244 15.368 9.35244Z" fill="#A5A5A5"/>
</svg>
